<?xml version="1.0" standalone="no"?>
<!DOCTYPE svg PUBLIC "-//W3C//DTD SVG 20010904//EN"
 "http://www.w3.org/TR/2001/REC-SVG-20010904/DTD/svg10.dtd">
<svg version="1.0" xmlns="http://www.w3.org/2000/svg"
 width="1125.000000pt" height="1125.000000pt" viewBox="0 0 1125.000000 1125.000000"
 preserveAspectRatio="xMidYMid meet">
<metadata>
Created by potrace 1.14, written by Peter Selinger 2001-2017
</metadata>
<g transform="translate(0.000000,1125.000000) scale(0.100000,-0.100000)"
fill="#000000" stroke="none">
<path d="M5257 10624 c-1 -1 -60 -4 -132 -8 -71 -4 -148 -9 -170 -11 -104 -11
-155 -17 -215 -26 -36 -6 -83 -13 -105 -16 -22 -3 -96 -16 -165 -30 -163 -32
-159 -31 -180 -38 -10 -3 -27 -7 -37 -9 -54 -11 -235 -63 -353 -102 -536 -178
-1030 -446 -1480 -803 -52 -42 -97 -78 -100 -81 -3 -3 -45 -41 -95 -85 -273
-241 -506 -503 -736 -825 -171 -240 -371 -595 -474 -840 -15 -36 -33 -78 -40
-95 -78 -176 -209 -601 -250 -807 -3 -16 -7 -40 -10 -55 -3 -16 -8 -35 -10
-43 -3 -8 -7 -33 -10 -55 -4 -22 -8 -51 -11 -65 -2 -14 -7 -41 -9 -60 -3 -19
-8 -48 -10 -65 -3 -16 -7 -52 -10 -80 -4 -27 -8 -66 -10 -85 -27 -225 -27
-816 0 -982 2 -13 6 -50 10 -83 3 -33 10 -87 15 -120 5 -33 12 -78 15 -100 4
-22 8 -47 10 -55 2 -8 7 -31 10 -50 14 -93 88 -386 129 -515 197 -623 492
-1159 917 -1670 115 -138 878 -899 1019 -1016 364 -303 727 -530 1135 -711
256 -114 478 -191 785 -273 31 -8 246 -54 280 -60 19 -3 58 -10 85 -15 47 -9
144 -22 260 -35 28 -3 64 -8 80 -10 170 -23 736 -23 950 0 17 2 59 6 95 10 36
3 71 8 78 10 7 3 40 7 75 11 34 3 65 8 68 10 3 1 27 6 54 9 26 4 116 23 199
41 83 19 160 37 171 39 102 23 469 143 549 180 17 8 55 24 85 35 100 39 317
143 456 220 826 454 1510 1162 1935 2005 87 173 104 211 170 370 63 154 171
485 196 600 1 6 6 28 12 50 31 116 82 400 97 545 3 30 8 69 11 85 20 138 26
710 10 900 -4 55 -10 120 -12 144 -3 37 -15 129 -29 214 -2 12 -6 38 -9 57
-44 295 -180 775 -287 1017 -11 23 -19 44 -19 47 0 20 -177 383 -234 479 -25
43 -46 79 -46 82 0 2 -28 48 -61 102 -123 198 -269 397 -433 593 -84 100 -827
847 -936 941 -41 35 -77 67 -80 70 -3 3 -48 39 -100 80 -533 421 -1118 712
-1770 883 -175 45 -413 91 -575 110 -27 4 -68 9 -90 11 -151 19 -297 27 -505
29 -89 1 -162 1 -163 0z m413 -119 c63 -3 129 -8 145 -10 17 -2 64 -6 105 -10
41 -4 82 -9 92 -10 9 -2 38 -7 65 -11 26 -3 57 -8 68 -10 11 -3 36 -7 55 -10
578 -91 1228 -350 1760 -700 101 -66 318 -224 309 -224 -3 0 -55 27 -115 61
-433 242 -948 430 -1409 514 -96 17 -267 44 -310 49 -27 3 -72 8 -100 11 -27
3 -72 8 -100 11 -86 9 -636 12 -730 3 -190 -17 -221 -20 -245 -24 -14 -2 -47
-6 -75 -10 -73 -9 -216 -34 -325 -56 -52 -11 -104 -22 -115 -24 -73 -15 -338
-94 -467 -138 -603 -211 -1162 -541 -1633 -967 -129 -116 -345 -339 -440 -454
-22 -26 -47 -56 -56 -65 -9 -9 -67 -83 -128 -166 -61 -82 -119 -161 -129 -175
-46 -62 -217 -350 -286 -481 -195 -374 -346 -788 -430 -1179 -28 -130 -27
-125 -51 -265 -3 -16 -8 -50 -11 -75 -3 -25 -7 -54 -9 -66 -1 -11 -6 -52 -10
-90 -4 -38 -9 -78 -11 -88 -22 -122 -21 -700 1 -891 3 -22 10 -82 16 -133 6
-51 12 -102 14 -115 2 -12 9 -49 14 -82 22 -133 30 -175 55 -285 35 -153 100
-382 136 -475 4 -11 22 -60 39 -110 47 -132 124 -310 209 -480 41 -82 77 -154
81 -160 5 -5 22 -37 40 -70 30 -55 30 -57 7 -30 -153 177 -427 634 -559 930
-114 258 -240 633 -292 870 -4 18 -16 80 -19 95 -2 8 -6 33 -11 55 -12 63 -14
76 -25 140 -15 96 -22 147 -25 185 -2 19 -6 53 -9 75 -27 218 -28 789 -2 955
3 14 7 50 10 80 11 91 37 261 51 330 8 37 16 77 18 90 4 21 39 168 52 220 54
208 131 426 256 720 53 125 179 361 277 520 212 343 401 581 697 875 182 181
192 191 345 314 512 416 1082 707 1732 887 49 13 98 26 110 28 13 3 64 14 115
25 51 12 109 23 130 27 21 3 45 7 53 9 8 2 38 7 65 11 28 3 59 8 70 10 11 2
61 9 110 14 50 6 106 13 125 15 19 2 105 7 190 11 85 4 156 7 157 8 4 3 239
-2 353 -9z m403 -999 c79 -4 152 -8 163 -10 10 -2 46 -7 79 -11 119 -13 119
-13 298 -44 202 -35 599 -155 812 -246 266 -114 458 -218 715 -388 153 -101
425 -411 637 -727 39 -58 80 -121 91 -140 11 -19 36 -64 57 -100 67 -116 181
-352 233 -480 112 -279 179 -513 237 -825 11 -61 36 -252 41 -320 3 -38 7 -90
10 -115 4 -50 4 -440 0 -510 -6 -76 -17 -198 -21 -222 -2 -13 -7 -45 -10 -73
-5 -43 -17 -119 -30 -190 -2 -11 -13 -63 -24 -115 -12 -52 -24 -106 -27 -120
-14 -66 -91 -314 -129 -418 -135 -366 -349 -757 -567 -1040 -112 -144 -134
-171 -238 -287 -518 -574 -1206 -995 -1954 -1195 -139 -37 -127 -34 -281 -65
-139 -27 -327 -52 -470 -62 -190 -14 -614 -7 -725 11 -14 3 -50 7 -80 10 -211
24 -506 90 -735 164 -497 163 -973 429 -1370 765 -199 169 -286 260 -370 387
-224 340 -386 681 -499 1050 -14 47 -30 99 -35 115 -35 109 -93 393 -111 540
-6 50 -13 101 -15 114 -19 106 -25 514 -12 696 66 874 396 1688 956 2360 146
175 349 380 506 510 33 28 62 53 65 56 15 17 259 195 345 251 361 236 752 413
1158 528 43 12 86 23 95 25 9 1 37 8 62 15 25 7 56 14 70 16 14 2 45 9 70 14
25 5 56 12 70 14 14 2 41 7 60 10 66 11 95 16 170 25 133 17 163 20 295 27 72
3 131 7 132 8 3 2 129 -1 276 -8z m2872 -1411 c33 -38 66 -76 73 -83 26 -28
210 -279 254 -347 251 -384 433 -790 543 -1210 40 -151 59 -240 80 -365 4 -25
9 -54 11 -65 2 -11 6 -41 9 -66 3 -25 7 -54 9 -65 3 -17 8 -70 21 -229 6 -63
6 -490 0 -528 -2 -16 -6 -63 -9 -105 -12 -153 -53 -409 -87 -547 -10 -44 -21
-89 -23 -100 -27 -123 -124 -409 -202 -593 -460 -1076 -1370 -1917 -2476
-2286 -147 -49 -436 -126 -528 -141 -19 -3 -60 -10 -90 -15 -82 -14 -109 -18
-175 -26 -33 -3 -68 -8 -79 -10 -131 -24 -699 -23 -876 1 -14 2 -47 6 -75 9
-52 7 -92 13 -135 21 -14 3 -40 7 -57 10 -85 13 -105 17 -293 60 -159 36 -466
143 -670 232 -388 172 -835 470 -1145 766 -34 33 -36 36 -10 20 17 -9 32 -20
35 -23 9 -10 211 -136 305 -190 393 -227 940 -420 1380 -486 28 -5 52 -9 55
-9 3 -1 37 -5 75 -9 39 -5 77 -10 85 -11 107 -19 636 -27 790 -12 144 15 165
17 190 21 14 3 45 7 70 10 142 19 426 80 565 123 441 135 774 291 1145 538
659 439 1189 1071 1508 1800 48 111 134 340 157 420 9 33 21 71 26 85 8 24 56
212 65 255 21 105 54 290 59 330 3 28 8 64 10 80 31 200 36 630 11 890 -9 87
-17 153 -26 205 -5 30 -11 71 -14 90 -3 19 -10 60 -16 90 -6 30 -14 66 -16 80
-74 373 -250 834 -462 1204 -25 45 -63 107 -84 138 -21 31 -38 61 -38 67 0 5
-3 11 -7 13 -5 2 -28 32 -52 68 l-43 65 48 -50 c27 -28 76 -82 109 -120z"/>
<path d="M5648 6795 c-2 -1 -34 -5 -73 -9 -302 -26 -563 -221 -691 -515 -40
-93 -81 -240 -91 -331 -9 -77 -10 -555 -1 -620 49 -362 206 -623 462 -765 224
-125 584 -133 834 -18 210 96 356 278 418 521 13 52 24 107 24 123 l0 28 -148
0 -148 0 -14 -62 c-7 -34 -14 -64 -15 -67 -20 -83 -79 -194 -131 -246 -50 -49
-137 -97 -199 -109 -22 -5 -47 -10 -55 -12 -40 -12 -230 -10 -280 1 -190 44
-342 205 -409 431 -38 131 -47 229 -46 486 2 293 14 389 66 529 76 204 242
351 429 378 59 8 183 8 242 -1 151 -23 272 -113 338 -252 17 -35 40 -107 53
-159 l22 -96 149 0 149 0 -7 59 c-16 137 -86 313 -163 410 -129 163 -286 250
-511 286 -43 7 -199 14 -204 10z"/>
<path d="M7661 6788 c-248 -26 -471 -160 -607 -364 -77 -116 -140 -271 -160
-394 -2 -14 -6 -34 -9 -45 -18 -81 -26 -525 -11 -643 34 -278 127 -491 285
-650 149 -151 331 -226 566 -235 407 -15 717 174 838 510 20 54 57 211 57 238
0 2 -65 4 -144 4 -102 0 -147 -3 -153 -12 -5 -7 -17 -45 -26 -85 -36 -154
-117 -282 -213 -336 -90 -50 -161 -68 -291 -72 -138 -4 -214 12 -307 65 -162
93 -269 284 -306 551 -25 173 -11 572 25 744 12 58 65 182 99 231 124 180 272
255 498 250 273 -6 434 -139 493 -410 10 -44 19 -86 21 -93 3 -10 39 -12 154
-11 l150 1 -5 41 c-3 23 -8 56 -12 72 -4 17 -7 32 -8 35 -36 161 -118 305
-235 413 -169 156 -415 225 -699 195z"/>
<path d="M2630 6751 c0 -7 32 -99 70 -202 39 -104 102 -276 141 -381 38 -106
76 -209 84 -228 8 -19 43 -114 79 -210 66 -181 156 -424 252 -685 31 -82 90
-242 133 -355 l76 -205 128 0 c75 0 132 4 136 10 4 5 26 60 49 120 112 303
151 410 238 642 52 139 94 255 94 259 0 3 6 20 14 37 16 38 48 123 150 402 43
116 84 226 91 245 68 167 204 555 196 559 -10 7 -309 7 -315 0 -2 -2 -16 -40
-31 -84 -15 -44 -61 -177 -102 -295 -41 -118 -94 -271 -118 -340 -45 -129
-145 -419 -305 -880 -51 -146 -93 -266 -94 -268 -2 -1 -10 19 -19 45 -8 27
-52 154 -97 283 -45 129 -106 307 -136 395 -106 306 -166 480 -174 505 -4 14
-50 144 -100 290 -51 146 -96 279 -101 295 -18 59 -15 58 -183 59 -127 1 -156
-2 -156 -13z"/>
</g>
</svg>
